<svg xmlns="http://www.w3.org/2000/svg" width="1200" height="630" viewBox="0 0 1200 630" fill="none">
  <rect width="1200" height="630" rx="36" fill="#FCFAF7"/>
  <rect x="50" y="50" width="1100" height="530" rx="28" fill="#FFF7ED" stroke="#FECACA" stroke-width="2"/>
  <rect x="96" y="126" width="1008" height="310" rx="24" fill="#F8FAFC" stroke="#CBD5E1" stroke-width="2"/>
  <rect x="452" y="192" width="296" height="178" rx="18" fill="#E2E8F0" stroke="#94A3B8" stroke-width="2" stroke-dasharray="10 10"/>
  <g stroke="#94A3B8" stroke-width="4" stroke-linecap="round">
    <path d="M140 188c48 12 58 28 96 26 39-1 55-23 93-20 41 3 47 26 93 26s54-23 92-20c41 2 47 22 91 24 48 2 53-18 95-22 40-4 57 12 93 19 37 8 60-1 98-15"/>
    <path d="M138 248c39 13 61 25 97 23 34-2 53-21 92-20 43 1 52 24 91 25 44 0 49-21 91-23 41-3 59 12 96 21 38 8 58 1 93-10 38-11 56-15 95-5"/>
    <path d="M140 309c47 10 61 24 99 24 38 0 48-18 89-20 40-2 55 14 95 19 40 6 55-7 96-16 41-9 57-8 96 2 38 9 55 19 92 20 37 0 49-10 96-25"/>
  </g>
  <g stroke="#DC2626" stroke-width="5" stroke-linecap="round" stroke-linejoin="round">
    <path d="M420 156l-38-34"/>
    <path d="M782 156l38-34"/>
    <path d="M600 388v62"/>
    <path d="M356 218h-62"/>
    <path d="M844 218h62"/>
  </g>
  <circle cx="600" cy="480" r="14" fill="#DC2626"/>
  <text x="96" y="98" fill="#991B1B" font-family="Arial, sans-serif" font-size="42" font-weight="700">Matching Knockdown Ceiling Texture</text>
  <text x="98" y="484" fill="#334155" font-family="Arial, sans-serif" font-size="30" font-weight="700">Blend the patch, feather the edge, match the pattern thickness.</text>
  <text x="98" y="528" fill="#475569" font-family="Arial, sans-serif" font-size="24">Support visual for Calgary texture-matching articles and service content.</text>
</svg>
